<mxfile host="app.diagrams.net" modified="2022-08-12T18:41:18.095Z" agent="5.0 (Windows NT 10.0; Win64; x64) AppleWebKit/537.36 (KHTML, like Gecko) Chrome/103.0.5060.134 Safari/537.36 OPR/89.0.4447.71" etag="Bs8D7ksHQc4S7PlTlWdz" version="20.2.3" type="github">
  <diagram id="3K9vc3BtDxzqvROllSc2" name="Страница 1">
    <mxGraphModel dx="2026" dy="899" grid="1" gridSize="10" guides="1" tooltips="1" connect="1" arrows="1" fold="1" page="0" pageScale="1" pageWidth="827" pageHeight="1169" math="0" shadow="0">
      <root>
        <mxCell id="0" />
        <mxCell id="1" parent="0" />
        <mxCell id="reoSKShQSHWTuMT2SeIZ-63" value="" style="group" vertex="1" connectable="0" parent="1">
          <mxGeometry x="-46" y="50" width="916" height="281" as="geometry" />
        </mxCell>
        <mxCell id="reoSKShQSHWTuMT2SeIZ-1" value="Дом торговли" style="rounded=0;whiteSpace=wrap;html=1;" vertex="1" parent="reoSKShQSHWTuMT2SeIZ-63">
          <mxGeometry x="246" width="440" height="80" as="geometry" />
        </mxCell>
        <mxCell id="reoSKShQSHWTuMT2SeIZ-2" value="Палатка 1" style="rounded=0;whiteSpace=wrap;html=1;" vertex="1" parent="reoSKShQSHWTuMT2SeIZ-63">
          <mxGeometry x="246" y="200" width="80" height="80" as="geometry" />
        </mxCell>
        <mxCell id="reoSKShQSHWTuMT2SeIZ-3" value="Палатка 2" style="rounded=0;whiteSpace=wrap;html=1;" vertex="1" parent="reoSKShQSHWTuMT2SeIZ-63">
          <mxGeometry x="366" y="200" width="80" height="80" as="geometry" />
        </mxCell>
        <mxCell id="reoSKShQSHWTuMT2SeIZ-4" value="Палатка 3" style="rounded=0;whiteSpace=wrap;html=1;" vertex="1" parent="reoSKShQSHWTuMT2SeIZ-63">
          <mxGeometry x="486" y="200" width="80" height="80" as="geometry" />
        </mxCell>
        <mxCell id="reoSKShQSHWTuMT2SeIZ-5" value="Палатка 4" style="rounded=0;whiteSpace=wrap;html=1;" vertex="1" parent="reoSKShQSHWTuMT2SeIZ-63">
          <mxGeometry x="606" y="201" width="80" height="80" as="geometry" />
        </mxCell>
        <mxCell id="reoSKShQSHWTuMT2SeIZ-6" value="Доброволец 1" style="shape=umlActor;verticalLabelPosition=top;verticalAlign=bottom;html=1;outlineConnect=0;labelPosition=center;align=center;" vertex="1" parent="reoSKShQSHWTuMT2SeIZ-63">
          <mxGeometry x="176" y="50" width="30" height="60" as="geometry" />
        </mxCell>
        <mxCell id="reoSKShQSHWTuMT2SeIZ-7" value="Доброволец 2" style="shape=umlActor;verticalLabelPosition=bottom;verticalAlign=top;html=1;outlineConnect=0;" vertex="1" parent="reoSKShQSHWTuMT2SeIZ-63">
          <mxGeometry x="726" y="200" width="30" height="60" as="geometry" />
        </mxCell>
        <mxCell id="reoSKShQSHWTuMT2SeIZ-10" value="&lt;font style=&quot;font-size: 8px;&quot;&gt;корзина&lt;/font&gt;" style="shape=cylinder3;whiteSpace=wrap;html=1;boundedLbl=1;backgroundOutline=1;size=15;strokeColor=#435C34;fillColor=#FFFFFF;" vertex="1" parent="reoSKShQSHWTuMT2SeIZ-63">
          <mxGeometry x="786" y="220" width="40" height="50" as="geometry" />
        </mxCell>
        <mxCell id="reoSKShQSHWTuMT2SeIZ-11" value="&lt;font style=&quot;font-size: 8px;&quot;&gt;корзина&lt;/font&gt;" style="shape=cylinder3;whiteSpace=wrap;html=1;boundedLbl=1;backgroundOutline=1;size=15;strokeColor=#435C34;fillColor=#FFFFFF;" vertex="1" parent="reoSKShQSHWTuMT2SeIZ-63">
          <mxGeometry x="116" y="60" width="40" height="50" as="geometry" />
        </mxCell>
        <mxCell id="reoSKShQSHWTuMT2SeIZ-17" value="" style="group" vertex="1" connectable="0" parent="reoSKShQSHWTuMT2SeIZ-63">
          <mxGeometry x="265" y="99" width="100" height="40" as="geometry" />
        </mxCell>
        <mxCell id="reoSKShQSHWTuMT2SeIZ-12" value="" style="shape=umlActor;verticalLabelPosition=bottom;verticalAlign=top;html=1;outlineConnect=0;fontSize=8;strokeColor=#435C34;fillColor=#FFFFFF;" vertex="1" parent="reoSKShQSHWTuMT2SeIZ-17">
          <mxGeometry x="80" width="20" height="40" as="geometry" />
        </mxCell>
        <mxCell id="reoSKShQSHWTuMT2SeIZ-14" value="Поток 1" style="shape=umlActor;verticalLabelPosition=bottom;verticalAlign=top;html=1;outlineConnect=0;fontSize=8;strokeColor=#435C34;fillColor=#FFFFFF;" vertex="1" parent="reoSKShQSHWTuMT2SeIZ-17">
          <mxGeometry x="40" width="20" height="40" as="geometry" />
        </mxCell>
        <mxCell id="reoSKShQSHWTuMT2SeIZ-15" value="" style="shape=umlActor;verticalLabelPosition=bottom;verticalAlign=top;html=1;outlineConnect=0;fontSize=8;strokeColor=#435C34;fillColor=#FFFFFF;" vertex="1" parent="reoSKShQSHWTuMT2SeIZ-17">
          <mxGeometry width="20" height="40" as="geometry" />
        </mxCell>
        <mxCell id="reoSKShQSHWTuMT2SeIZ-50" style="edgeStyle=orthogonalEdgeStyle;rounded=0;orthogonalLoop=1;jettySize=auto;html=1;entryX=0;entryY=0.3333333333333333;entryDx=0;entryDy=0;entryPerimeter=0;fontSize=8;" edge="1" parent="reoSKShQSHWTuMT2SeIZ-63" source="reoSKShQSHWTuMT2SeIZ-6" target="reoSKShQSHWTuMT2SeIZ-15">
          <mxGeometry relative="1" as="geometry">
            <Array as="points">
              <mxPoint x="191" y="112" />
              <mxPoint x="236" y="112" />
            </Array>
          </mxGeometry>
        </mxCell>
        <mxCell id="reoSKShQSHWTuMT2SeIZ-23" value="" style="group;labelPosition=right;verticalLabelPosition=middle;align=left;verticalAlign=middle;" vertex="1" connectable="0" parent="reoSKShQSHWTuMT2SeIZ-63">
          <mxGeometry x="566" y="160" width="100" height="40" as="geometry" />
        </mxCell>
        <mxCell id="reoSKShQSHWTuMT2SeIZ-19" value="" style="shape=umlActor;verticalLabelPosition=bottom;verticalAlign=top;html=1;outlineConnect=0;fontSize=8;strokeColor=#435C34;fillColor=#FFFFFF;" vertex="1" parent="reoSKShQSHWTuMT2SeIZ-23">
          <mxGeometry x="80" width="20" height="40" as="geometry" />
        </mxCell>
        <mxCell id="reoSKShQSHWTuMT2SeIZ-20" value="Поток 2" style="shape=umlActor;verticalLabelPosition=top;verticalAlign=bottom;html=1;outlineConnect=0;fontSize=8;strokeColor=#435C34;fillColor=#FFFFFF;labelPosition=center;align=center;" vertex="1" parent="reoSKShQSHWTuMT2SeIZ-23">
          <mxGeometry x="40" width="20" height="40" as="geometry" />
        </mxCell>
        <mxCell id="reoSKShQSHWTuMT2SeIZ-21" value="" style="shape=umlActor;verticalLabelPosition=bottom;verticalAlign=top;html=1;outlineConnect=0;fontSize=8;strokeColor=#435C34;fillColor=#FFFFFF;" vertex="1" parent="reoSKShQSHWTuMT2SeIZ-23">
          <mxGeometry width="20" height="40" as="geometry" />
        </mxCell>
        <mxCell id="reoSKShQSHWTuMT2SeIZ-40" style="edgeStyle=orthogonalEdgeStyle;rounded=0;orthogonalLoop=1;jettySize=auto;html=1;exitX=0.5;exitY=0;exitDx=0;exitDy=0;exitPerimeter=0;entryX=1;entryY=0.3333333333333333;entryDx=0;entryDy=0;entryPerimeter=0;fontSize=8;" edge="1" parent="reoSKShQSHWTuMT2SeIZ-63" source="reoSKShQSHWTuMT2SeIZ-7" target="reoSKShQSHWTuMT2SeIZ-19">
          <mxGeometry relative="1" as="geometry" />
        </mxCell>
        <mxCell id="reoSKShQSHWTuMT2SeIZ-26" value="Листовка" style="text;html=1;strokeColor=none;fillColor=none;align=center;verticalAlign=middle;whiteSpace=wrap;rounded=0;fontSize=8;" vertex="1" parent="reoSKShQSHWTuMT2SeIZ-63">
          <mxGeometry x="686" y="160" width="50" height="10" as="geometry" />
        </mxCell>
        <mxCell id="reoSKShQSHWTuMT2SeIZ-27" value="" style="group;labelPosition=right;verticalLabelPosition=middle;align=left;verticalAlign=middle;" vertex="1" connectable="0" parent="reoSKShQSHWTuMT2SeIZ-63">
          <mxGeometry x="366" y="160" width="100" height="40" as="geometry" />
        </mxCell>
        <mxCell id="reoSKShQSHWTuMT2SeIZ-28" value="" style="shape=umlActor;verticalLabelPosition=bottom;verticalAlign=top;html=1;outlineConnect=0;fontSize=8;strokeColor=#435C34;fillColor=#FFFFFF;" vertex="1" parent="reoSKShQSHWTuMT2SeIZ-27">
          <mxGeometry x="80" width="20" height="40" as="geometry" />
        </mxCell>
        <mxCell id="reoSKShQSHWTuMT2SeIZ-29" value="Поток 2" style="shape=umlActor;verticalLabelPosition=top;verticalAlign=bottom;html=1;outlineConnect=0;fontSize=8;strokeColor=#435C34;fillColor=#FFFFFF;labelPosition=center;align=center;" vertex="1" parent="reoSKShQSHWTuMT2SeIZ-27">
          <mxGeometry x="40" width="20" height="40" as="geometry" />
        </mxCell>
        <mxCell id="reoSKShQSHWTuMT2SeIZ-30" value="" style="shape=umlActor;verticalLabelPosition=bottom;verticalAlign=top;html=1;outlineConnect=0;fontSize=8;strokeColor=#435C34;fillColor=#FFFFFF;" vertex="1" parent="reoSKShQSHWTuMT2SeIZ-27">
          <mxGeometry width="20" height="40" as="geometry" />
        </mxCell>
        <mxCell id="reoSKShQSHWTuMT2SeIZ-33" value="" style="group;labelPosition=right;verticalLabelPosition=middle;align=left;verticalAlign=middle;" vertex="1" connectable="0" parent="reoSKShQSHWTuMT2SeIZ-63">
          <mxGeometry x="166" y="160" width="100" height="40" as="geometry" />
        </mxCell>
        <mxCell id="reoSKShQSHWTuMT2SeIZ-34" value="" style="shape=umlActor;verticalLabelPosition=bottom;verticalAlign=top;html=1;outlineConnect=0;fontSize=8;strokeColor=#435C34;fillColor=#FFFFFF;" vertex="1" parent="reoSKShQSHWTuMT2SeIZ-33">
          <mxGeometry x="80" width="20" height="40" as="geometry" />
        </mxCell>
        <mxCell id="reoSKShQSHWTuMT2SeIZ-35" value="Поток 2" style="shape=umlActor;verticalLabelPosition=top;verticalAlign=bottom;html=1;outlineConnect=0;fontSize=8;strokeColor=#435C34;fillColor=#FFFFFF;labelPosition=center;align=center;" vertex="1" parent="reoSKShQSHWTuMT2SeIZ-33">
          <mxGeometry x="40" width="20" height="40" as="geometry" />
        </mxCell>
        <mxCell id="reoSKShQSHWTuMT2SeIZ-36" value="" style="shape=umlActor;verticalLabelPosition=bottom;verticalAlign=top;html=1;outlineConnect=0;fontSize=8;strokeColor=#435C34;fillColor=#FFFFFF;" vertex="1" parent="reoSKShQSHWTuMT2SeIZ-33">
          <mxGeometry width="20" height="40" as="geometry" />
        </mxCell>
        <mxCell id="reoSKShQSHWTuMT2SeIZ-37" style="edgeStyle=orthogonalEdgeStyle;rounded=0;orthogonalLoop=1;jettySize=auto;html=1;exitX=0;exitY=0.3333333333333333;exitDx=0;exitDy=0;exitPerimeter=0;entryX=1;entryY=0.3333333333333333;entryDx=0;entryDy=0;entryPerimeter=0;fontSize=8;" edge="1" parent="reoSKShQSHWTuMT2SeIZ-63" source="reoSKShQSHWTuMT2SeIZ-30" target="reoSKShQSHWTuMT2SeIZ-34">
          <mxGeometry relative="1" as="geometry" />
        </mxCell>
        <mxCell id="reoSKShQSHWTuMT2SeIZ-38" style="edgeStyle=orthogonalEdgeStyle;rounded=0;orthogonalLoop=1;jettySize=auto;html=1;exitX=0;exitY=0.3333333333333333;exitDx=0;exitDy=0;exitPerimeter=0;entryX=1;entryY=0.3333333333333333;entryDx=0;entryDy=0;entryPerimeter=0;fontSize=8;" edge="1" parent="reoSKShQSHWTuMT2SeIZ-63" source="reoSKShQSHWTuMT2SeIZ-21" target="reoSKShQSHWTuMT2SeIZ-28">
          <mxGeometry relative="1" as="geometry" />
        </mxCell>
        <mxCell id="reoSKShQSHWTuMT2SeIZ-41" style="edgeStyle=orthogonalEdgeStyle;rounded=0;orthogonalLoop=1;jettySize=auto;html=1;exitX=0;exitY=0.3333333333333333;exitDx=0;exitDy=0;exitPerimeter=0;entryX=0.5;entryY=1;entryDx=0;entryDy=0;entryPerimeter=0;fontSize=8;" edge="1" parent="reoSKShQSHWTuMT2SeIZ-63" source="reoSKShQSHWTuMT2SeIZ-36" target="reoSKShQSHWTuMT2SeIZ-11">
          <mxGeometry relative="1" as="geometry" />
        </mxCell>
        <mxCell id="reoSKShQSHWTuMT2SeIZ-42" value="" style="group" vertex="1" connectable="0" parent="reoSKShQSHWTuMT2SeIZ-63">
          <mxGeometry x="466" y="99" width="100" height="40" as="geometry" />
        </mxCell>
        <mxCell id="reoSKShQSHWTuMT2SeIZ-43" value="" style="shape=umlActor;verticalLabelPosition=bottom;verticalAlign=top;html=1;outlineConnect=0;fontSize=8;strokeColor=#435C34;fillColor=#FFFFFF;" vertex="1" parent="reoSKShQSHWTuMT2SeIZ-42">
          <mxGeometry x="80" width="20" height="40" as="geometry" />
        </mxCell>
        <mxCell id="reoSKShQSHWTuMT2SeIZ-44" value="Поток 1" style="shape=umlActor;verticalLabelPosition=bottom;verticalAlign=top;html=1;outlineConnect=0;fontSize=8;strokeColor=#435C34;fillColor=#FFFFFF;" vertex="1" parent="reoSKShQSHWTuMT2SeIZ-42">
          <mxGeometry x="40" width="20" height="40" as="geometry" />
        </mxCell>
        <mxCell id="reoSKShQSHWTuMT2SeIZ-45" value="" style="shape=umlActor;verticalLabelPosition=bottom;verticalAlign=top;html=1;outlineConnect=0;fontSize=8;strokeColor=#435C34;fillColor=#FFFFFF;" vertex="1" parent="reoSKShQSHWTuMT2SeIZ-42">
          <mxGeometry width="20" height="40" as="geometry" />
        </mxCell>
        <mxCell id="reoSKShQSHWTuMT2SeIZ-46" value="" style="group" vertex="1" connectable="0" parent="reoSKShQSHWTuMT2SeIZ-63">
          <mxGeometry x="666" y="99" width="100" height="40" as="geometry" />
        </mxCell>
        <mxCell id="reoSKShQSHWTuMT2SeIZ-47" value="" style="shape=umlActor;verticalLabelPosition=bottom;verticalAlign=top;html=1;outlineConnect=0;fontSize=8;strokeColor=#435C34;fillColor=#FFFFFF;" vertex="1" parent="reoSKShQSHWTuMT2SeIZ-46">
          <mxGeometry x="80" width="20" height="40" as="geometry" />
        </mxCell>
        <mxCell id="reoSKShQSHWTuMT2SeIZ-48" value="Поток 1" style="shape=umlActor;verticalLabelPosition=bottom;verticalAlign=top;html=1;outlineConnect=0;fontSize=8;strokeColor=#435C34;fillColor=#FFFFFF;" vertex="1" parent="reoSKShQSHWTuMT2SeIZ-46">
          <mxGeometry x="40" width="20" height="40" as="geometry" />
        </mxCell>
        <mxCell id="reoSKShQSHWTuMT2SeIZ-49" value="" style="shape=umlActor;verticalLabelPosition=bottom;verticalAlign=top;html=1;outlineConnect=0;fontSize=8;strokeColor=#435C34;fillColor=#FFFFFF;" vertex="1" parent="reoSKShQSHWTuMT2SeIZ-46">
          <mxGeometry width="20" height="40" as="geometry" />
        </mxCell>
        <mxCell id="reoSKShQSHWTuMT2SeIZ-51" value="Листовка" style="text;html=1;strokeColor=none;fillColor=none;align=center;verticalAlign=middle;whiteSpace=wrap;rounded=0;fontSize=8;" vertex="1" parent="reoSKShQSHWTuMT2SeIZ-63">
          <mxGeometry x="196" y="117" width="50" height="10" as="geometry" />
        </mxCell>
        <mxCell id="reoSKShQSHWTuMT2SeIZ-52" style="edgeStyle=orthogonalEdgeStyle;rounded=0;orthogonalLoop=1;jettySize=auto;html=1;exitX=1;exitY=0.3333333333333333;exitDx=0;exitDy=0;exitPerimeter=0;entryX=0;entryY=0.3333333333333333;entryDx=0;entryDy=0;entryPerimeter=0;fontSize=8;" edge="1" parent="reoSKShQSHWTuMT2SeIZ-63" source="reoSKShQSHWTuMT2SeIZ-12" target="reoSKShQSHWTuMT2SeIZ-45">
          <mxGeometry relative="1" as="geometry" />
        </mxCell>
        <mxCell id="reoSKShQSHWTuMT2SeIZ-53" style="edgeStyle=orthogonalEdgeStyle;rounded=0;orthogonalLoop=1;jettySize=auto;html=1;exitX=1;exitY=0.3333333333333333;exitDx=0;exitDy=0;exitPerimeter=0;entryX=0;entryY=0.3333333333333333;entryDx=0;entryDy=0;entryPerimeter=0;fontSize=8;" edge="1" parent="reoSKShQSHWTuMT2SeIZ-63" source="reoSKShQSHWTuMT2SeIZ-43" target="reoSKShQSHWTuMT2SeIZ-49">
          <mxGeometry relative="1" as="geometry" />
        </mxCell>
        <mxCell id="reoSKShQSHWTuMT2SeIZ-54" style="edgeStyle=orthogonalEdgeStyle;rounded=0;orthogonalLoop=1;jettySize=auto;html=1;exitX=1;exitY=0.3333333333333333;exitDx=0;exitDy=0;exitPerimeter=0;entryX=0.5;entryY=0;entryDx=0;entryDy=0;entryPerimeter=0;fontSize=8;" edge="1" parent="reoSKShQSHWTuMT2SeIZ-63" source="reoSKShQSHWTuMT2SeIZ-47" target="reoSKShQSHWTuMT2SeIZ-10">
          <mxGeometry relative="1" as="geometry" />
        </mxCell>
        <mxCell id="reoSKShQSHWTuMT2SeIZ-55" value="" style="group" vertex="1" connectable="0" parent="reoSKShQSHWTuMT2SeIZ-63">
          <mxGeometry y="99" width="100" height="40" as="geometry" />
        </mxCell>
        <mxCell id="reoSKShQSHWTuMT2SeIZ-56" value="" style="shape=umlActor;verticalLabelPosition=bottom;verticalAlign=top;html=1;outlineConnect=0;fontSize=8;strokeColor=#435C34;fillColor=#FFFFFF;" vertex="1" parent="reoSKShQSHWTuMT2SeIZ-55">
          <mxGeometry x="80" width="20" height="40" as="geometry" />
        </mxCell>
        <mxCell id="reoSKShQSHWTuMT2SeIZ-57" value="Поток 1" style="shape=umlActor;verticalLabelPosition=bottom;verticalAlign=top;html=1;outlineConnect=0;fontSize=8;strokeColor=#435C34;fillColor=#FFFFFF;" vertex="1" parent="reoSKShQSHWTuMT2SeIZ-55">
          <mxGeometry x="40" width="20" height="40" as="geometry" />
        </mxCell>
        <mxCell id="reoSKShQSHWTuMT2SeIZ-58" value="" style="shape=umlActor;verticalLabelPosition=bottom;verticalAlign=top;html=1;outlineConnect=0;fontSize=8;strokeColor=#435C34;fillColor=#FFFFFF;" vertex="1" parent="reoSKShQSHWTuMT2SeIZ-55">
          <mxGeometry width="20" height="40" as="geometry" />
        </mxCell>
        <mxCell id="reoSKShQSHWTuMT2SeIZ-59" value="" style="group;labelPosition=right;verticalLabelPosition=middle;align=left;verticalAlign=middle;" vertex="1" connectable="0" parent="reoSKShQSHWTuMT2SeIZ-63">
          <mxGeometry x="816" y="160" width="100" height="40" as="geometry" />
        </mxCell>
        <mxCell id="reoSKShQSHWTuMT2SeIZ-60" value="" style="shape=umlActor;verticalLabelPosition=bottom;verticalAlign=top;html=1;outlineConnect=0;fontSize=8;strokeColor=#435C34;fillColor=#FFFFFF;" vertex="1" parent="reoSKShQSHWTuMT2SeIZ-59">
          <mxGeometry x="80" width="20" height="40" as="geometry" />
        </mxCell>
        <mxCell id="reoSKShQSHWTuMT2SeIZ-61" value="Поток 2" style="shape=umlActor;verticalLabelPosition=top;verticalAlign=bottom;html=1;outlineConnect=0;fontSize=8;strokeColor=#435C34;fillColor=#FFFFFF;labelPosition=center;align=center;" vertex="1" parent="reoSKShQSHWTuMT2SeIZ-59">
          <mxGeometry x="40" width="20" height="40" as="geometry" />
        </mxCell>
        <mxCell id="reoSKShQSHWTuMT2SeIZ-62" value="" style="shape=umlActor;verticalLabelPosition=bottom;verticalAlign=top;html=1;outlineConnect=0;fontSize=8;strokeColor=#435C34;fillColor=#FFFFFF;" vertex="1" parent="reoSKShQSHWTuMT2SeIZ-59">
          <mxGeometry width="20" height="40" as="geometry" />
        </mxCell>
      </root>
    </mxGraphModel>
  </diagram>
</mxfile>
